<svg xmlns="http://www.w3.org/2000/svg" width="256" height="256" viewBox="0 0 64 64">
  <defs>
    <linearGradient id="plastic" x1="0%" y1="0%" x2="100%" y2="100%">
      <stop offset="0%" stop-color="#9aaccc"/>
      <stop offset="50%" stop-color="#7a8eb0"/>
      <stop offset="100%" stop-color="#556682"/>
    </linearGradient>
    <linearGradient id="recess" x1="0%" y1="0%" x2="0%" y2="100%">
      <stop offset="0%" stop-color="#b4c4e0"/>
      <stop offset="100%" stop-color="#6d7fa0"/>
    </linearGradient>
    <mask id="chassis">
      <rect width="64" height="64" fill="black" />
      <path fill="white" d="M 16.2 11 L 47.8 11 A 3.2 3.2 0 0 1 51 14.2 L 51 41 L 51.159 41.300 L 51.539 41.600 L 51.911 41.900 L 52.049 42.200 L 51.871 42.500 L 51.483 42.800 L 51.121 43.100 L 51.003 43.400 L 51.201 43.700 L 51.595 44.000 L 51.946 44.300 L 52.043 44.600 L 51.827 44.900 L 51.428 45.200 L 51.088 45.500 L 51.012 45.800 L 51.247 46.100 L 51.650 46.400 L 51.977 46.700 L 52.032 47.000 L 51.779 47.300 L 51.373 47.600 L 51.059 47.900 L 51.027 48.200 L 51.295 48.500 L 51.703 48.800 L 52.003 49.100 L 52.014 49.400 L 51.729 49.700 L 51.321 50.000 L 51.036 50.300 L 51.047 50.600 L 51.347 50.900 L 51.755 51.200 L 52.023 51.500 L 51.991 51.800 L 51.677 52.100 L 51.271 52.400 L 51.018 52.700 L 51 52.8 A 3.2 3.2 0 0 1 47.8 56 L 16.2 56 A 3.2 3.2 0 0 1 13 52.8 L 12.841 52.500 L 12.461 52.200 L 12.089 51.900 L 11.951 51.600 L 12.129 51.300 L 12.517 51.000 L 12.879 50.700 L 12.997 50.400 L 12.799 50.100 L 12.405 49.800 L 12.054 49.500 L 11.957 49.200 L 12.173 48.900 L 12.572 48.600 L 12.912 48.300 L 12.988 48.000 L 12.753 47.700 L 12.350 47.400 L 12.023 47.100 L 11.968 46.800 L 12.221 46.500 L 12.627 46.200 L 12.941 45.900 L 12.973 45.600 L 12.705 45.300 L 12.297 45.000 L 11.997 44.700 L 11.986 44.400 L 12.271 44.100 L 12.679 43.800 L 12.964 43.500 L 12.953 43.200 L 12.653 42.900 L 12.245 42.600 L 11.977 42.300 L 12.009 42.000 L 12.323 41.700 L 12.729 41.400 L 12.982 41.100 L 13 41 L 13 14.2 A 3.2 3.2 0 0 1 16.2 11 Z" />
      <rect x="17.5" y="15.5" width="29" height="25.5" rx="2" ry="2" fill="black" />
      <path fill="black" d="M 32 11.5 L 29.98 14.95 L 34.02 14.95 Z" />
    </mask>
  </defs>
  <rect x="17.5" y="15.5" width="29" height="25.5" rx="2" ry="2" fill="url(#recess)" opacity="0.75" />
  <rect width="64" height="64" fill="url(#plastic)" mask="url(#chassis)" />
</svg>
