<svg xmlns="http://www.w3.org/2000/svg" width="256" height="256" viewBox="0 0 64 64">
  <defs>
    <linearGradient id="plastic" x1="0%" y1="0%" x2="100%" y2="100%">
      <stop offset="0%" stop-color="#9aaccc"/>
      <stop offset="50%" stop-color="#7a8eb0"/>
      <stop offset="100%" stop-color="#556682"/>
    </linearGradient>
    <linearGradient id="recess" x1="0%" y1="0%" x2="0%" y2="100%">
      <stop offset="0%" stop-color="#b4c4e0"/>
      <stop offset="100%" stop-color="#6d7fa0"/>
    </linearGradient>
    <clipPath id="gripZone">
      <rect x="13" y="41" width="38" height="15" rx="0" />
    </clipPath>
    <mask id="chassis">
      <rect width="64" height="64" fill="black" />
      <rect x="13" y="11" width="38" height="45" rx="3.2" ry="3.2" fill="white" />
      <rect x="17.5" y="15.5" width="29" height="25.5" rx="2" ry="2" fill="black" />
      <path fill="black" d="M 32 11.5 L 29.98 14.95 L 34.02 14.95 Z" />
    </mask>
  </defs>
  <rect x="17.5" y="15.5" width="29" height="25.5" rx="2" ry="2" fill="url(#recess)" opacity="0.75" />
  <rect width="64" height="64" fill="url(#plastic)" mask="url(#chassis)" />
  <!-- Subtle pull grips: faint horizontal strokes in side margins only, below recess (no silhouette change) -->
  <g clip-path="url(#gripZone)" opacity="0.36">
    <g stroke="#3d4d62" stroke-width="0.32" stroke-linecap="round">
      <line x1="13.8" y1="42.4" x2="16.9" y2="42.4" />
      <line x1="13.8" y1="44.5" x2="16.9" y2="44.5" />
      <line x1="13.8" y1="46.6" x2="16.9" y2="46.6" />
      <line x1="13.8" y1="48.7" x2="16.9" y2="48.7" />
      <line x1="47.1" y1="42.4" x2="50.2" y2="42.4" />
      <line x1="47.1" y1="44.5" x2="50.2" y2="44.5" />
      <line x1="47.1" y1="46.6" x2="50.2" y2="46.6" />
      <line x1="47.1" y1="48.7" x2="50.2" y2="48.7" />
    </g>
  </g>
</svg>
